<!DOCTYPE svg PUBLIC "-//W3C//DTD SVG 1.1//EN" "http://www.w3.org/Graphics/SVG/1.1/DTD/svg11.dtd">
<!-- Uploaded to: SVG Repo, www.svgrepo.com, Transformed by: SVG Repo Mixer Tools -->
<svg fill="#fff" width="64px" height="64px" viewBox="0 0 32 32" version="1.1" xmlns="http://www.w3.org/2000/svg" stroke="#fff">
<g id="SVGRepo_bgCarrier" stroke-width="0"/>
<g id="SVGRepo_tracerCarrier" stroke-linecap="round" stroke-linejoin="round"/>
<g id="SVGRepo_iconCarrier"> <title>elipsis</title> <path d="M0.384 16q0 1.632 1.12 2.784t2.784 1.12 2.752-1.12 1.152-2.784-1.152-2.752-2.752-1.152-2.784 1.152-1.12 2.752zM12.096 16q0 1.632 1.152 2.784t2.752 1.12 2.752-1.12 1.152-2.784-1.152-2.752-2.752-1.152-2.752 1.152-1.152 2.752zM23.808 16q0 1.632 1.152 2.784t2.752 1.12 2.784-1.12 1.12-2.784-1.12-2.752-2.784-1.152-2.752 1.152-1.152 2.752z"/> </g>
</svg>