<!DOCTYPE svg PUBLIC "-//W3C//DTD SVG 1.1//EN" "http://www.w3.org/Graphics/SVG/1.1/DTD/svg11.dtd">

<!-- Uploaded to: SVG Repo, www.svgrepo.com, Transformed by: SVG Repo Mixer Tools -->
<svg fill="#ffff" width="30px" height="30px" viewBox="0 0 24 24" xmlns="http://www.w3.org/2000/svg" stroke="#ffff">

<g id="SVGRepo_bgCarrier" stroke-width="0"/>

<g id="SVGRepo_tracerCarrier" stroke-linecap="round" stroke-linejoin="round"/>

<g id="SVGRepo_iconCarrier">

<path d="M18 2H7c-1.103 0-2 .897-2 2v3c0 1.103.897 2 2 2h11c1.103 0 2-.897 2-2V4c0-1.103-.897-2-2-2z"/>

<path d="M13 15v-2c0-1.103-.897-2-2-2H4V5c-1.103 0-2 .897-2 2v4c0 1.103.897 2 2 2h7v2a1 1 0 0 0-1 1v5a1 1 0 0 0 1 1h2a1 1 0 0 0 1-1v-5a1 1 0 0 0-1-1z"/>

</g>

</svg>